{
	"accessors" : 
	[
		{
			"bufferView" : 2,
			"byteOffset" : 0,
			"componentType" : 5126,
			"count" : 1800,
			"max" : 
			[
				0.6320426464080811,
				0.6940805315971375,
				0.7226724624633789,
				1
			],
			"min" : 
			[
				0.0697270855307579,
				0.08919350802898407,
				0.06190747767686844,
				1
			],
			"name" : "accessor_color_m0-PolyPaper17_-57832",
			"type" : "VEC4"
		},
		{
			"bufferView" : 2,
			"byteOffset" : 28800,
			"componentType" : 5126,
			"count" : 576,
			"max" : 
			[
				0.2631747424602509,
				0.5542271137237549,
				0.06575388461351395,
				1
			],
			"min" : 
			[
				0.1939721554517746,
				0.08919350802898407,
				0.06190747767686844,
				1
			],
			"name" : "accessor_color_m1-PolyPaper20_-57838",
			"type" : "VEC4"
		},
		{
			"bufferView" : 2,
			"byteOffset" : 38016,
			"componentType" : 5126,
			"count" : 9000,
			"max" : 
			[
				1,
				0.6940805315971375,
				0.7226724624633789,
				1
			],
			"min" : 
			[
				0.0697270855307579,
				0.08919350802898407,
				0.05459228157997131,
				1
			],
			"name" : "accessor_color_m3-PolyPaper9_-57850",
			"type" : "VEC4"
		},
		{
			"bufferView" : 2,
			"byteOffset" : 182016,
			"componentType" : 5126,
			"count" : 800,
			"max" : 
			[
				0.6320426464080811,
				0.6940805315971375,
				0.7226724624633789,
				1
			],
			"min" : 
			[
				0.1939721554517746,
				0.08919350802898407,
				0.06190747767686844,
				1
			],
			"name" : "accessor_color_m4-PolyPaper9_-57856",
			"type" : "VEC4"
		},
		{
			"bufferView" : 0,
			"byteOffset" : 0,
			"componentType" : 5123,
			"count" : 1896,
			"max" : 
			[
				1799
			],
			"min" : 
			[
				0
			],
			"name" : "accessor_indices_0_m0-PolyPaper17_-57832",
			"type" : "SCALAR"
		},
		{
			"bufferView" : 0,
			"byteOffset" : 3792,
			"componentType" : 5123,
			"count" : 672,
			"max" : 
			[
				575
			],
			"min" : 
			[
				0
			],
			"name" : "accessor_indices_0_m1-PolyPaper20_-57838",
			"type" : "SCALAR"
		},
		{
			"bufferView" : 0,
			"byteOffset" : 5136,
			"componentType" : 5123,
			"count" : 11484,
			"max" : 
			[
				8999
			],
			"min" : 
			[
				0
			],
			"name" : "accessor_indices_0_m3-PolyPaper9_-57850",
			"type" : "SCALAR"
		},
		{
			"bufferView" : 0,
			"byteOffset" : 28104,
			"componentType" : 5123,
			"count" : 834,
			"max" : 
			[
				799
			],
			"min" : 
			[
				0
			],
			"name" : "accessor_indices_0_m4-PolyPaper9_-57856",
			"type" : "SCALAR"
		},
		{
			"bufferView" : 1,
			"byteOffset" : 21600,
			"componentType" : 5126,
			"count" : 1800,
			"max" : 
			[
				1,
				1,
				1
			],
			"min" : 
			[
				-1,
				-1,
				-1
			],
			"name" : "accessor_normal_m0-PolyPaper17_-57832",
			"type" : "VEC3"
		},
		{
			"bufferView" : 1,
			"byteOffset" : 50112,
			"componentType" : 5126,
			"count" : 576,
			"max" : 
			[
				0.9995026,
				1,
				0.9273512
			],
			"min" : 
			[
				-0.9995026,
				-1,
				-0.9268649
			],
			"name" : "accessor_normal_m1-PolyPaper20_-57838",
			"type" : "VEC3"
		},
		{
			"bufferView" : 1,
			"byteOffset" : 165024,
			"componentType" : 5126,
			"count" : 9000,
			"max" : 
			[
				0.999972,
				1,
				0.9998158
			],
			"min" : 
			[
				-0.9999996,
				-1,
				-0.9984682
			],
			"name" : "accessor_normal_m3-PolyPaper9_-57850",
			"type" : "VEC3"
		},
		{
			"bufferView" : 1,
			"byteOffset" : 282624,
			"componentType" : 5126,
			"count" : 800,
			"max" : 
			[
				0.9991342,
				0.9992226,
				0.9672731
			],
			"min" : 
			[
				-0.9975129,
				-0.9973125,
				-0.9745265
			],
			"name" : "accessor_normal_m4-PolyPaper9_-57856",
			"type" : "VEC3"
		},
		{
			"bufferView" : 1,
			"byteOffset" : 0,
			"componentType" : 5126,
			"count" : 1800,
			"max" : 
			[
				3.00629,
				2.057746,
				2.912374
			],
			"min" : 
			[
				-3.12513,
				0.27238,
				-1.88763
			],
			"name" : "accessor_position_m0-PolyPaper17_-57832",
			"type" : "VEC3"
		},
		{
			"bufferView" : 1,
			"byteOffset" : 43200,
			"componentType" : 5126,
			"count" : 576,
			"max" : 
			[
				2.860737,
				4.00546,
				3.02698
			],
			"min" : 
			[
				-2.916412,
				0.5621772,
				0.7998602
			],
			"name" : "accessor_position_m1-PolyPaper20_-57838",
			"type" : "VEC3"
		},
		{
			"bufferView" : 1,
			"byteOffset" : 57024,
			"componentType" : 5126,
			"count" : 9000,
			"max" : 
			[
				3.079284,
				3.297749,
				3.1152
			],
			"min" : 
			[
				-3.304633,
				0.3717756,
				-1.448459
			],
			"name" : "accessor_position_m3-PolyPaper9_-57850",
			"type" : "VEC3"
		},
		{
			"bufferView" : 1,
			"byteOffset" : 273024,
			"componentType" : 5126,
			"count" : 800,
			"max" : 
			[
				-1.328757,
				2.720617,
				2.442963
			],
			"min" : 
			[
				-2.492105,
				1.510638,
				1.367615
			],
			"name" : "accessor_position_m4-PolyPaper9_-57856",
			"type" : "VEC3"
		}
	],
	"asset" : 
	{
		"copyright" : "Unknown",
		"generator" : "glTF 1-to-2 Upgrader for Google Blocks",
		"version" : "2.0"
	},
	"bufferViews" : 
	[
		{
			"buffer" : 0,
			"byteLength" : 29772,
			"byteOffset" : 0,
			"name" : "ushortBufferView",
			"target" : 34963
		},
		{
			"buffer" : 0,
			"byteLength" : 292224,
			"byteOffset" : 29772,
			"byteStride" : 12,
			"name" : "vec3BufferView",
			"target" : 34962
		},
		{
			"buffer" : 0,
			"byteLength" : 194816,
			"byteOffset" : 321996,
			"byteStride" : 16,
			"name" : "vec4BufferView",
			"target" : 34962
		}
	],
	"buffers" : 
	[
		{
			"byteLength" : 516812,
			"name" : "model",
			"uri" : "model.bin"
		}
	],
	"materials" : 
	[
		{
			"alphaMode" : "OPAQUE",
			"doubleSided" : false,
			"name" : "BlocksPaper",
			"pbrMetallicRoughness" : 
			{
				"baseColorFactor" : 
				[
					1,
					1,
					1,
					1
				],
				"metallicFactor" : 0,
				"roughnessFactor" : 0.6
			}
		},
		{
			"alphaMode" : "BLEND",
			"doubleSided" : false,
			"name" : "BlocksGlass",
			"pbrMetallicRoughness" : 
			{
				"baseColorFactor" : 
				[
					0.2,
					0.2,
					1,
					0.3
				],
				"metallicFactor" : 1,
				"roughnessFactor" : 0.4
			}
		},
		{
			"alphaMode" : "OPAQUE",
			"doubleSided" : true,
			"name" : "BlocksGem",
			"pbrMetallicRoughness" : 
			{
				"baseColorFactor" : 
				[
					1,
					0.4,
					1,
					1
				],
				"metallicFactor" : 0,
				"roughnessFactor" : 0.1
			}
		}
	],
	"meshes" : 
	[
		{
			"name" : "mesh_m0-PolyPaper17_-57832",
			"primitives" : 
			[
				{
					"attributes" : 
					{
						"COLOR_0" : 0,
						"NORMAL" : 8,
						"POSITION" : 12
					},
					"indices" : 4,
					"material" : 0,
					"mode" : 4
				}
			]
		},
		{
			"name" : "mesh_m1-PolyPaper20_-57838",
			"primitives" : 
			[
				{
					"attributes" : 
					{
						"COLOR_0" : 1,
						"NORMAL" : 9,
						"POSITION" : 13
					},
					"indices" : 5,
					"material" : 0,
					"mode" : 4
				}
			]
		},
		{
			"name" : "mesh_m3-PolyPaper9_-57850",
			"primitives" : 
			[
				{
					"attributes" : 
					{
						"COLOR_0" : 2,
						"NORMAL" : 10,
						"POSITION" : 14
					},
					"indices" : 6,
					"material" : 0,
					"mode" : 4
				}
			]
		},
		{
			"name" : "mesh_m4-PolyPaper9_-57856",
			"primitives" : 
			[
				{
					"attributes" : 
					{
						"COLOR_0" : 3,
						"NORMAL" : 11,
						"POSITION" : 15
					},
					"indices" : 7,
					"material" : 0,
					"mode" : 4
				}
			]
		}
	],
	"nodes" : 
	[
		{
			"matrix" : 
			[
				1,
				0,
				0,
				0,
				0,
				1,
				0,
				0,
				0,
				0,
				1,
				0,
				0,
				0,
				0,
				1
			],
			"mesh" : 1,
			"name" : "node_MeshObject-2059139072-PolyPaper20"
		},
		{
			"matrix" : 
			[
				1,
				0,
				0,
				0,
				0,
				1,
				0,
				0,
				0,
				0,
				1,
				0,
				0,
				0,
				0,
				1
			],
			"mesh" : 2,
			"name" : "node_MeshObject-914980864-PolyPaper9"
		},
		{
			"matrix" : 
			[
				1,
				0,
				0,
				0,
				0,
				1,
				0,
				0,
				0,
				0,
				1,
				0,
				0,
				0,
				0,
				1
			],
			"mesh" : 0,
			"name" : "node_MeshObject1663749120-PolyPaper17"
		},
		{
			"matrix" : 
			[
				1,
				0,
				0,
				0,
				0,
				1,
				0,
				0,
				0,
				0,
				1,
				0,
				0,
				0,
				0,
				1
			],
			"mesh" : 3,
			"name" : "node_MeshObject379215872-PolyPaper9"
		}
	],
	"scene" : 0,
	"scenes" : 
	[
		{
			"extras" : {},
			"name" : "defaultScene",
			"nodes" : 
			[
				2,
				0,
				1,
				3
			]
		}
	]
}